<?xml version="1.0" encoding="UTF-8"?>
<!DOCTYPE svg PUBLIC "-//W3C//DTD SVG 1.1//EN" "http://www.w3.org/Graphics/SVG/1.1/DTD/svg11.dtd">
<svg version="1.1" xmlns="http://www.w3.org/2000/svg" xmlns:xlink="http://www.w3.org/1999/xlink" x="0px" y="0px" width="320" height="320" viewBox="0, 0, 320, 320">
  <g id="Layer 6">
    <path d="M59.895,149.086 L65.895,125.086 L86.185,109.188 L74.895,73.086 L87.895,34.086 L97.321,73.949 L96.48,108.366 L104.554,109.88 L106.895,71.086 L128.895,41.086 L132.895,81.086 L111.895,112.086 L137.445,144.041 L182.875,160.012 L218.875,186.012 L244.395,230.965 L254,214 L269,222 L274,238 L256.395,247.965 L242.395,249.965 L178.598,260.672 L110.84,260.672 L116.554,245.977 L161.567,246.77 L148.874,219.146 L106.646,185.567 L97.395,204.586 L92.395,226.586 L78.395,223.586 L83.395,191.586 L108.395,164.586 L97.895,160.086 L84.903,168.215 L67.895,166.086 L59.895,149.086 z" fill-opacity="0" stroke="#0000FF" stroke-width="1"/>
  </g>
  <g id="Layer 1">
    <path d="M59.18,131.074 L72.209,112.775 L92.209,102.775 L78,70 L78,33 L100,61 L100.82,100.767 L111.134,100.858 L112,65 L132,39 L135,71 L119.787,105.803 L135.18,130.074 L194.151,144.027 L242.918,167.774 L254,155 L270.15,161.027 L271.15,183.027 L256.151,189.027 L248.024,181.81 L223.25,203.629 L235.144,244.263 L172.095,252.917 L167.151,243.027 L212.892,230.047 L158.151,216.027 L132.151,187.027 L128.68,211.574 L139.68,236.574 L127.68,239.574 L112.68,211.574 L111.15,173.027 L102.209,152.775 L79.68,156.574 L67.18,148.074 L59.18,131.074 z" fill-opacity="0" stroke="#0000FF" stroke-width="1"/>
  </g>
  <g id="Layer 0">
    <path d="M59.997,143.87 L69.79,130.51 L89.79,120.51 L78,88 L79.469,51.449 L97.469,79.449 L98.401,118.502 L106.905,118.664 L107.469,81.449 L127.469,52.449 L134.469,82.449 L115.558,123.609 L134.997,144.87 L212,141 L244.737,152.033 L255,142 L271.969,145.286 L272.969,167.286 L257.969,173.286 L249.843,166.069 L235.827,203.661 L247.721,244.295 L184.673,252.949 L179.728,243.059 L225.469,230.079 L173.397,222.823 L144.969,195.949 L143.877,219.571 L138.969,251.949 L126.969,250.949 L127.806,225.134 L127.969,191.949 L100.762,169.589 L76.969,173.949 L58.997,163.87 L59.997,143.87 z" fill-opacity="0" stroke="#0000FF" stroke-width="1"/>
  </g>
  <defs/>
</svg>
