<?xml version="1.0" encoding="UTF-8"?>
<!DOCTYPE svg PUBLIC "-//W3C//DTD SVG 1.1//EN" "http://www.w3.org/Graphics/SVG/1.1/DTD/svg11.dtd">
<svg version="1.1" xmlns="http://www.w3.org/2000/svg" xmlns:xlink="http://www.w3.org/1999/xlink" x="0px" y="0px" width="320" height="320" viewBox="0, 0, 320, 320">
  <g id="Layer 1">
    <path d="M39.614,152.004 L54.3,114.85 L70.3,103.85 L75.778,79.859 L105.614,33.004 L107.09,78.543 L82.911,102.843 L92.801,104.698 L129.09,76.543 L165.614,66.004 L137.364,101.41 L100.218,113.969 L133.09,146.543 L192.09,147.543 L225.5,175.41 L258.5,233.41 L276.5,223.41 L280.5,248.41 L273.364,264.41 L259.364,264.41 L229.811,284.388 L182.645,285.742 L107.09,287.5 L106.645,275.742 L155.899,273.017 L158.741,225.637 L106.624,196.262 L72.09,211.5 L65.645,227.742 L51.09,221.5 L62.09,193.5 L100.614,168.004 L81.883,164.601 L62.883,174.601 L47.614,166.004 L39.614,152.004 z" fill-opacity="0" stroke="#0000FF" stroke-width="1"/>
  </g>
  <g id="Layer 2">
    <path d="M49.313,141.806 L63.999,104.652 L79.999,93.652 L85.477,69.661 L115.313,22.806 L116.789,68.345 L92.61,92.645 L102.5,94.5 L138.789,66.345 L175.313,55.806 L147.063,91.212 L109.917,103.771 L142.789,136.345 L192.09,147.543 L225.5,175.41 L258.5,225.5 L276.5,215.5 L280.5,240.5 L273.364,256.5 L259.364,256.5 L229.811,284.388 L182.645,285.742 L107.09,287.5 L106.645,275.742 L155.899,273.017 L158.741,225.637 L117.034,188.262 L82.5,203.5 L76.055,219.742 L61.5,213.5 L72.5,185.5 L110.313,157.806 L91.582,154.403 L72.582,164.403 L57.313,155.806 L49.313,141.806 z" fill-opacity="0" stroke="#0000FF" stroke-width="1"/>
  </g>
  <g id="Layer 3">
    <path d="M78.5,101.5 L95.5,85.5 L114.5,68.5 L99.5,44.5 L113.5,0.5 L132.5,42.5 L126.797,70.339 L136.687,72.194 L138.5,43.5 L158.5,0.5 L162.5,42.5 L144.104,81.465 L169.5,117.5 L197.5,146.5 L225.5,175.41 L258.5,225.5 L276.5,215.5 L280.5,240.5 L273.364,256.5 L259.364,256.5 L229.811,284.388 L182.645,285.742 L107.09,287.5 L106.645,275.742 L155.899,273.017 L158.741,225.637 L129.5,185.5 L103.5,190.5 L97.055,206.742 L82.5,200.5 L93.5,172.5 L138.5,145.5 L119.5,127.5 L92.5,133.5 L78.5,121.5 L78.5,101.5 z" fill-opacity="0" stroke="#0000FF" stroke-width="1"/>
  </g>
  <g id="Layer 4">
    <path d="M71.5,108.5 L95.5,85.5 L113.5,69.5 L101.5,45.5 L92.5,0.5 L124.5,43.5 L125.797,71.339 L135.687,73.194 L136.5,39.5 L140.5,0.5 L162.5,42.5 L144.104,81.465 L169.5,117.5 L197.5,146.5 L225.5,175.41 L258.5,225.5 L280.5,216.5 L284.5,241.5 L277.364,257.5 L259.364,256.5 L229.811,284.388 L182.645,285.742 L107.09,287.5 L106.645,275.742 L155.899,273.017 L158.741,225.637 L129.5,185.5 L107.5,185.5 L104.5,205.5 L86.5,201.5 L91.5,176.5 L138.5,145.5 L119.5,127.5 L92.5,133.5 L78.5,121.5 L71.5,108.5 z" fill-opacity="0" stroke="#0000FF" stroke-width="1"/>
  </g>
  <defs/>
</svg>
