<?xml version="1.0" encoding="UTF-8"?>
<!DOCTYPE svg PUBLIC "-//W3C//DTD SVG 1.1//EN" "http://www.w3.org/Graphics/SVG/1.1/DTD/svg11.dtd">
<svg version="1.1" xmlns="http://www.w3.org/2000/svg" xmlns:xlink="http://www.w3.org/1999/xlink" x="0px" y="0px" width="640" height="320" viewBox="0, 0, 640, 320">
  <g id="Layer 2">
    <path d="M38.194,222.968 L34.844,180.233 L50.005,159.386 L60.659,124.571 L86.5,83.5 L80.558,129.309 L60.894,162.879 L72.039,162.242 L100.049,127.313 L125.5,96.5 L119.001,138.684 L85.573,164.217 L115.67,168.014 L160.433,141.475 L209.949,137.455 L268.5,163.5 L277.976,148.338 L294.085,152.129 L300.718,171.081 L279.871,178.661 L285.557,204.246 L249.506,264.662 L156.039,272.242 L160.433,259.924 L204.969,248.552 L176.5,226.5 L122.267,231 L114.647,257.117 L118.739,275.085 L105.936,278.684 L100.735,250.448 L102.63,211.596 L84.118,201.08 L61.883,230.548 L48.617,228.653 L38.194,222.968 z" fill-opacity="0" stroke="#0000FF" stroke-width="1"/>
    <path d="M150.411,136.746 L165.097,99.592 L181.097,88.592 L186.575,64.601 L216.411,17.746 L217.887,63.285 L193.708,87.585 L203.598,89.44 L239.887,61.285 L276.411,50.746 L248.161,86.152 L211.015,98.711 L243.887,131.285 L302.887,132.285 L336.297,160.152 L369.297,218.152 L387.297,208.152 L391.297,233.152 L384.161,249.152 L370.161,249.152 L340.608,269.13 L293.442,270.484 L217.887,272.242 L217.442,260.484 L266.696,257.759 L269.538,210.379 L217.421,181.004 L182.887,196.242 L176.442,212.484 L161.887,206.242 L172.887,178.242 L211.411,152.746 L192.68,149.343 L173.68,159.343 L158.411,150.746 L150.411,136.746 z" fill-opacity="0" stroke="#0000FF" stroke-width="1"/>
    <path d="M38.194,222.968 L34.844,180.233 L50.005,159.386 L60.659,124.571 L86.5,83.5 L80.558,129.309 L60.894,162.879 L72.039,162.242 L100.049,127.313 L125.5,96.5 L119.001,138.684 L85.573,164.217 L115.67,168.014 L160.433,141.475 L209.949,137.455 L268.5,163.5 L277.976,148.338 L294.085,152.129 L300.718,171.081 L279.871,178.661 L285.557,204.246 L249.506,264.662 L156.039,272.242 L160.433,259.924 L204.969,248.552 L176.5,226.5 L122.267,231 L114.647,257.117 L118.739,275.085 L105.936,278.684 L100.735,250.448 L102.63,211.596 L84.118,201.08 L61.883,230.548 L48.617,228.653 L38.194,222.968 z" fill-opacity="0" stroke="#0000FF" stroke-width="1"/>
    <path d="M150.411,136.746 L165.097,99.592 L181.097,88.592 L186.575,64.601 L216.411,17.746 L217.887,63.285 L193.708,87.585 L203.598,89.44 L239.887,61.285 L276.411,50.746 L248.161,86.152 L211.015,98.711 L243.887,131.285 L302.887,132.285 L336.297,160.152 L369.297,218.152 L387.297,208.152 L391.297,233.152 L384.161,249.152 L370.161,249.152 L340.608,269.13 L293.442,270.484 L217.887,272.242 L217.442,260.484 L266.696,257.759 L269.538,210.379 L217.421,181.004 L182.887,196.242 L176.442,212.484 L161.887,206.242 L172.887,178.242 L211.411,152.746 L192.68,149.343 L173.68,159.343 L158.411,150.746 L150.411,136.746 z" fill-opacity="0" stroke="#0000FF" stroke-width="1"/>
    <path d="M38.194,222.968 L34.844,180.233 L50.005,159.386 L60.659,124.571 L86.5,83.5 L80.558,129.309 L60.894,162.879 L72.039,162.242 L100.049,127.313 L125.5,96.5 L119.001,138.684 L85.573,164.217 L115.67,168.014 L160.433,141.475 L209.949,137.455 L268.5,163.5 L277.976,148.338 L294.085,152.129 L300.718,171.081 L279.871,178.661 L285.557,204.246 L249.506,264.662 L156.039,272.242 L160.433,259.924 L204.969,248.552 L176.5,226.5 L122.267,231 L114.647,257.117 L118.739,275.085 L105.936,278.684 L100.735,250.448 L102.63,211.596 L84.118,201.08 L61.883,230.548 L48.617,228.653 L38.194,222.968 z" fill-opacity="0" stroke="#0000FF" stroke-width="1"/>
    <path d="M150.411,136.746 L165.097,99.592 L181.097,88.592 L186.575,64.601 L216.411,17.746 L217.887,63.285 L193.708,87.585 L203.598,89.44 L239.887,61.285 L276.411,50.746 L248.161,86.152 L211.015,98.711 L243.887,131.285 L302.887,132.285 L336.297,160.152 L369.297,218.152 L387.297,208.152 L391.297,233.152 L384.161,249.152 L370.161,249.152 L340.608,269.13 L293.442,270.484 L217.887,272.242 L217.442,260.484 L266.696,257.759 L269.538,210.379 L217.421,181.004 L182.887,196.242 L176.442,212.484 L161.887,206.242 L172.887,178.242 L211.411,152.746 L192.68,149.343 L173.68,159.343 L158.411,150.746 L150.411,136.746 z" fill-opacity="0" stroke="#0000FF" stroke-width="1"/>
  </g>
  <g id="Layer 3">
    <path d="M34.844,212.5 L34.844,180.233 L50.005,159.386 L54.5,121.5 L80.5,83.5 L74.5,129.5 L62.5,158.5 L72.039,162.242 L92.5,125.5 L115.5,92.5 L110.5,140.5 L85.573,164.217 L116.5,172.5 L160.433,141.475 L209.949,137.455 L268.5,163.5 L277.976,148.338 L294.085,152.129 L300.718,171.081 L279.871,178.661 L285.557,204.246 L249.506,264.662 L156.039,272.242 L160.433,259.924 L205.5,241.5 L176.5,231.5 L126.5,235.5 L114.647,257.117 L118.5,272.242 L105.936,278.684 L100.735,250.448 L96.5,215.5 L84.5,207.5 L61.883,230.548 L48.617,228.653 L34.844,212.5 z" fill-opacity="0" stroke="#0000FF" stroke-width="1"/>
    <path d="M155.5,128.5 L167.5,105.5 L181.097,88.592 L185.5,53.5 L209.5,13.5 L215.5,55.5 L193.708,87.585 L203.598,89.44 L231.5,59.5 L271.5,34.5 L245.5,77.5 L216.5,100.5 L233.5,128.5 L300.718,140.5 L332.5,168.5 L369.297,218.152 L384.5,214.5 L391.297,228.5 L391.297,244.5 L373.5,243.5 L340.608,269.13 L293.442,270.484 L223.5,278.684 L220.5,264.5 L266.696,257.759 L269.5,203.5 L217.421,181.004 L188.5,196.5 L182.5,209.5 L170.5,206.5 L177.5,180.5 L211.411,152.746 L192.68,149.343 L173.68,159.343 L158.411,150.746 L155.5,128.5 z" fill-opacity="0" stroke="#0000FF" stroke-width="1"/>
  </g>
  <g id="Layer 4">
    <path d="M38.194,222.968 L34.844,180.233 L50.005,159.386 L60.659,124.571 L86.5,83.5 L80.558,129.309 L60.894,162.879 L72.039,162.242 L100.049,127.313 L125.5,96.5 L119.001,138.684 L85.573,164.217 L115.67,168.014 L160.433,141.475 L209.949,137.455 L268.5,163.5 L277.976,148.338 L294.085,152.129 L300.718,171.081 L279.871,178.661 L285.557,204.246 L249.506,264.662 L156.039,272.242 L160.433,259.924 L204.969,248.552 L176.5,226.5 L122.267,231 L114.647,257.117 L118.739,275.085 L105.936,278.684 L100.735,250.448 L102.63,211.596 L84.118,201.08 L61.883,230.548 L48.617,228.653 L38.194,222.968 z" fill-opacity="0" stroke="#0000FF" stroke-width="1"/>
    <path d="M150.411,136.746 L165.097,99.592 L181.097,88.592 L186.575,64.601 L216.411,17.746 L217.887,63.285 L193.708,87.585 L203.598,89.44 L239.887,61.285 L276.411,50.746 L248.161,86.152 L211.015,98.711 L243.887,131.285 L302.887,132.285 L336.297,160.152 L369.297,218.152 L387.297,208.152 L391.297,233.152 L384.161,249.152 L370.161,249.152 L340.608,269.13 L293.442,270.484 L217.887,272.242 L217.442,260.484 L266.696,257.759 L269.538,210.379 L217.421,181.004 L182.887,196.242 L176.442,212.484 L161.887,206.242 L172.887,178.242 L211.411,152.746 L192.68,149.343 L173.68,159.343 L158.411,150.746 L150.411,136.746 z" fill-opacity="0" stroke="#0000FF" stroke-width="1"/>
    <path d="M38.194,222.968 L34.844,180.233 L50.005,159.386 L60.659,124.571 L86.5,83.5 L80.558,129.309 L60.894,162.879 L72.039,162.242 L100.049,127.313 L125.5,96.5 L119.001,138.684 L85.573,164.217 L115.67,168.014 L160.433,141.475 L209.949,137.455 L268.5,163.5 L277.976,148.338 L294.085,152.129 L300.718,171.081 L279.871,178.661 L285.557,204.246 L249.506,264.662 L156.039,272.242 L160.433,259.924 L204.969,248.552 L176.5,226.5 L122.267,231 L114.647,257.117 L118.739,275.085 L105.936,278.684 L100.735,250.448 L102.63,211.596 L84.118,201.08 L61.883,230.548 L48.617,228.653 L38.194,222.968 z" fill-opacity="0" stroke="#0000FF" stroke-width="1"/>
    <path d="M150.411,136.746 L165.097,99.592 L181.097,88.592 L186.575,64.601 L216.411,17.746 L217.887,63.285 L193.708,87.585 L203.598,89.44 L239.887,61.285 L276.411,50.746 L248.161,86.152 L211.015,98.711 L243.887,131.285 L302.887,132.285 L336.297,160.152 L369.297,218.152 L387.297,208.152 L391.297,233.152 L384.161,249.152 L370.161,249.152 L340.608,269.13 L293.442,270.484 L217.887,272.242 L217.442,260.484 L266.696,257.759 L269.538,210.379 L217.421,181.004 L182.887,196.242 L176.442,212.484 L161.887,206.242 L172.887,178.242 L211.411,152.746 L192.68,149.343 L173.68,159.343 L158.411,150.746 L150.411,136.746 z" fill-opacity="0" stroke="#0000FF" stroke-width="1"/>
  </g>
  <defs/>
</svg>
