<?xml version="1.0" encoding="UTF-8"?>
<!DOCTYPE svg PUBLIC "-//W3C//DTD SVG 1.1//EN" "http://www.w3.org/Graphics/SVG/1.1/DTD/svg11.dtd">
<svg version="1.1" xmlns="http://www.w3.org/2000/svg" xmlns:xlink="http://www.w3.org/1999/xlink" x="0px" y="0px" width="320" height="320" viewBox="0, 0, 320, 320">
  <g id="Layer 2">
    <path d="M40.5,103.139 L60.5,83.139 L80.5,73.139 L61.914,52.589 L59.441,25.392 L76.131,46.408 L89.111,71.132 L99.001,72.987 L104.564,42.699 L120.5,23.139 L117.544,48.88 L106.418,82.258 L120.5,103.139 L180.5,73.139 L230.5,83.139 L240.5,53.139 L257.239,62.479 L260.5,73.139 L250.5,93.139 L240.5,93.139 L220.5,133.139 L237.459,197.846 L174.411,206.5 L169.466,196.61 L215.207,183.63 L160.5,143.139 L137.324,148.397 L133.615,173.122 L158.34,196.61 L150.5,203.139 L117.544,178.685 L110.5,153.139 L90.5,123.139 L60.5,133.139 L40.5,123.139 L40.5,103.139 z" fill-opacity="0" stroke="#0000FF" stroke-width="1"/>
  </g>
  <g id="Layer 1">
    <path d="M58.973,94.157 L78.973,74.157 L98.973,64.157 L80.387,43.606 L77.914,16.409 L94.604,37.425 L107.584,62.15 L117.474,64.004 L123.037,33.717 L138.973,14.157 L136.017,39.898 L124.891,73.276 L138.973,94.157 L198.973,64.157 L248.973,74.157 L258.973,44.157 L275.712,53.496 L278.973,64.157 L268.973,84.157 L258.973,84.157 L238.973,124.157 L255.932,188.864 L192.884,197.518 L187.939,187.628 L233.68,174.647 L178.973,134.157 L155.797,139.415 L152.088,164.139 L176.813,187.628 L168.973,194.157 L136.017,169.702 L128.973,144.157 L108.973,114.157 L78.973,124.157 L58.973,114.157 L58.973,94.157 z" fill-opacity="0" stroke="#0000FF" stroke-width="1"/>
  </g>
  <defs/>
</svg>
