<?xml version="1.0" encoding="UTF-8"?>
<!DOCTYPE svg PUBLIC "-//W3C//DTD SVG 1.1//EN" "http://www.w3.org/Graphics/SVG/1.1/DTD/svg11.dtd">
<svg version="1.1" xmlns="http://www.w3.org/2000/svg" xmlns:xlink="http://www.w3.org/1999/xlink" x="0px" y="0px" width="320" height="320" viewBox="0, 0, 320, 320">
  <g id="Layer 1">
    <path d="M115.224,221.493 L125.072,181.619 L145.046,164.311 L165.467,130.025 L133.409,148.74 L109.104,152.381 L124.235,127.516 L171.424,111.168 L184.671,104.215 L208.178,106.669 L227.092,107.119 L242.608,166.803 L239.341,178.993" fill-opacity="0" stroke="#00FF00" stroke-width="1"/>
    <path d="M223.089,127.658 L224.932,148.138 L236.417,172.72 L242.608,187.813 L242.608,221.493" fill-opacity="0" stroke="#00FF00" stroke-width="1"/>
    <path d="M177.52,123.296 L189.232,127.658 L194.183,124.166 L192.479,118.603 L189.657,111.224 L182.066,111.224 L177.52,123.623" fill-opacity="0" stroke="#00FF00" stroke-width="1"/>
    <path d="M214.517,129.185 L223.089,126.241 L221.581,114.789 L214.517,113.48 L211.018,123.623 L214.517,129.185 z" fill-opacity="0" stroke="#00FF00" stroke-width="1"/>
    <path d="M179.173,160.98 L195.53,156.99 L197.866,147.921 L188.52,139.215 L200.785,139.656 L216.17,141.754 L201.371,148.284 L202.768,156.843 L211.886,165.334 L200.127,160.115 L179.173,160.98 z" fill-opacity="0" stroke="#00FF00" stroke-width="1"/>
  </g>
  <g id="Layer 2">
    <path d="M10.062,331.751 L29.953,250.505 L70.293,215.24 L111.535,145.38 L46.789,183.513 L-2.297,190.931 L28.262,140.267 L123.566,106.958 L150.32,92.79 L197.797,97.79 L235.996,98.708 L267.332,220.318 L260.734,245.154" fill-opacity="0" stroke="#00FF00" stroke-width="1"/>
    <path d="M227.91,140.556 L231.633,182.286 L254.828,232.372 L267.332,263.126 L267.332,331.751" fill-opacity="0" stroke="#00FF00" stroke-width="1"/>
    <path d="M135.879,131.669 L159.531,140.556 L169.531,133.443 L166.09,122.107 L160.391,107.072 L145.059,107.072 L135.879,132.336" fill-opacity="0" stroke="#00FF00" stroke-width="1"/>
    <path d="M210.598,143.669 L227.91,137.669 L224.865,114.336 L210.598,111.669 L203.531,132.336 L210.598,143.669 z" fill-opacity="0" stroke="#00FF00" stroke-width="1"/>
    <path d="M139.217,208.453 L172.251,200.322 L176.97,181.844 L158.094,164.104 L182.865,165.003 L213.936,169.278 L184.049,182.583 L186.87,200.023 L205.285,217.323 L181.536,206.69 L139.217,208.453 z" fill-opacity="0" stroke="#00FF00" stroke-width="1"/>
  </g>
  <g id="Layer 3">
    <path d="M-168.755,490.273 L-127.987,323.752 L-45.307,251.471 L39.223,108.288 L-93.48,186.445 L-194.087,201.649 L-131.454,97.808 L63.882,29.539 L118.717,0.5 L216.025,10.748 L294.318,12.629 L358.544,261.88 L345.021,312.783" fill-opacity="0" stroke="#00FF00" stroke-width="1"/>
    <path d="M277.745,98.4 L285.375,183.931 L332.916,286.587 L358.544,349.62 L358.544,490.273" fill-opacity="0" stroke="#00FF00" stroke-width="1"/>
    <path d="M89.118,80.186 L137.596,98.4 L158.092,83.821 L151.038,60.587 L139.357,29.771 L107.933,29.771 L89.118,81.552" fill-opacity="0" stroke="#00FF00" stroke-width="1"/>
    <path d="M242.261,104.781 L277.745,92.484 L271.503,44.66 L242.261,39.194 L227.778,81.552 L242.261,104.781 z" fill-opacity="0" stroke="#00FF00" stroke-width="1"/>
    <path d="M95.961,237.562 L163.666,220.897 L173.338,183.023 L134.649,146.665 L185.42,148.506 L249.104,157.269 L187.847,184.538 L193.629,220.285 L231.371,255.741 L182.697,233.948 L95.961,237.562 z" fill-opacity="0" stroke="#00FF00" stroke-width="1"/>
  </g>
  <defs/>
</svg>
