<?xml version="1.0" encoding="UTF-8"?>
<!DOCTYPE svg PUBLIC "-//W3C//DTD SVG 1.1//EN" "http://www.w3.org/Graphics/SVG/1.1/DTD/svg11.dtd">
<svg version="1.1" xmlns="http://www.w3.org/2000/svg" xmlns:xlink="http://www.w3.org/1999/xlink" x="0px" y="0px" width="320" height="320" viewBox="0, 0, 320, 320">
  <g id="Layer 1">
    <path d="M33.651,200.784 L30.301,158.049 L45.462,137.202 L51.655,104.129 L77.496,63.058 L71.554,108.867 L56.351,140.695 L67.496,140.058 L90.506,104.129 L117.496,72.058 L109.458,115.5 L81.03,142.033 L111.127,145.83 L155.89,119.291 L198.731,104.617 L257.282,130.662 L266.758,115.5 L282.867,119.291 L289.5,138.243 L268.653,145.823 L274.339,171.408 L244.963,242.478 L151.496,250.058 L155.89,237.74 L200.426,226.368 L171.999,196.993 L117.724,208.816 L110.104,234.933 L114.196,252.901 L101.393,256.5 L96.192,228.264 L98.087,189.412 L79.575,178.896 L61.131,214.997 L47.496,203.058 L33.651,200.784 z" fill-opacity="0" stroke="#0000FF" stroke-width="1"/>
  </g>
  <g id="Layer 2">
    <path d="M33.651,200.784 L30.301,158.049 L45.462,137.202 L51.655,104.129 L77.496,63.058 L71.554,108.867 L56.351,140.695 L67.496,140.058 L90.506,104.129 L117.496,72.058 L109.458,115.5 L81.03,142.033 L111.127,145.83 L155.89,119.291 L198.731,104.617 L257.282,130.662 L266.758,115.5 L282.867,119.291 L289.5,138.243 L268.653,145.823 L274.339,171.408 L244.963,242.478 L151.496,250.058 L155.89,237.74 L200.426,226.368 L171.999,196.993 L117.724,208.816 L110.104,234.933 L114.196,252.901 L101.393,256.5 L96.192,228.264 L98.087,189.412 L79.575,178.896 L57.34,208.364 L44.074,206.469 L33.651,200.784 z" fill-opacity="0" stroke="#0000FF" stroke-width="1"/>
  </g>
  <defs/>
</svg>
