<?xml version="1.0" encoding="UTF-8"?>
<!DOCTYPE svg PUBLIC "-//W3C//DTD SVG 1.1//EN" "http://www.w3.org/Graphics/SVG/1.1/DTD/svg11.dtd">
<svg version="1.1" xmlns="http://www.w3.org/2000/svg" xmlns:xlink="http://www.w3.org/1999/xlink" x="0px" y="0px" width="320" height="320" viewBox="0, 0, 320, 320">
  <g id="Layer 4">
    <path d="M61.793,136.303 L81.793,116.303 L101.793,106.303 L83.206,85.752 L80.734,58.555 L97.423,79.571 L110.404,104.295 L118.908,104.457 L125.857,75.862 L139.924,55.626 L142.396,82.205 L127.561,109.402 L141.793,136.303 L206.68,144.017 L256.858,140.375 L262.472,129.246 L279.21,138.585 L285.452,160.592 L273.09,168.628 L261.964,154.411 L246.858,190.375 L258.752,231.009 L195.704,239.663 L190.759,229.773 L236.5,216.793 L184.428,209.537 L158.617,181.56 L154.908,206.285 L179.633,229.773 L171.793,236.303 L138.837,211.848 L131.793,186.303 L111.793,156.303 L81.793,166.303 L61.793,156.303 L61.793,136.303 z" fill-opacity="0" stroke="#0000FF" stroke-width="1" opacity="0"/>
  </g>
  <g id="Layer 3">
    <path d="M61.793,139.444 L81.793,119.444 L101.793,109.444 L91.981,88.273 L97.643,61.467 L106.198,82.091 L110.404,107.437 L118.908,107.598 L134.781,90.091 L153.793,78.383 L151.321,96.434 L127.561,112.543 L141.793,139.444 L210.042,134.248 L252.98,132.503 L267.527,121.885 L279.271,123.74 L282.361,145.374 L273.09,154.537 L259.491,153.409 L242.361,176.139 L263.2,201.622 L227.967,245.509 L214.369,240.564 L232.003,202.556 L179.932,195.3 L158.617,184.701 L144.521,218.203 L135.868,249.109 L119.797,249.652 L128.873,218.398 L131.793,189.444 L111.793,159.444 L81.793,169.444 L61.793,159.444 L61.793,139.444 z" fill-opacity="0" stroke="#0000FF" stroke-width="1"/>
  </g>
  <g id="Layer 2">
    <path d="M61.793,103.499 L72.919,83.719 L85.362,68.449 L102.489,39.441 L130.923,27.079 L116.409,43.783 L97.643,61.467 L110.624,61.467 L128.771,51.314 L161.21,45.004 L144.521,55.626 L121.132,66.412 L159.243,87.423 L201.275,35.501 L249.488,44.155 L249.613,11.433 L266.352,20.772 L269.613,31.433 L270.85,56.048 L262.594,57.792 L256.5,101.026 L258.255,131.541 L282.361,192.116 L270.617,199.534 L233.53,137.104 L205.196,107.207 L170.581,141.822 L121.651,162.447 L112.379,190.88 L97.544,190.262 L106.198,156.884 L140.194,139.576 L117.423,109.062 L95.789,127.605 L76.009,126.987 L61.793,103.499 z" fill-opacity="0" stroke="#0000FF" stroke-width="1"/>
  </g>
  <g id="Layer 1">
    <path d="M61.793,136.303 L81.793,116.303 L101.793,106.303 L83.206,85.752 L80.734,58.555 L97.423,79.571 L110.404,104.295 L118.908,104.457 L125.857,75.862 L139.924,55.626 L142.396,82.205 L127.561,109.402 L141.793,136.303 L206.68,144.017 L256.858,140.375 L262.472,129.246 L279.21,138.585 L285.452,160.592 L273.09,168.628 L261.964,154.411 L246.858,190.375 L258.752,231.009 L195.704,239.663 L190.759,229.773 L236.5,216.793 L184.428,209.537 L158.617,181.56 L154.908,206.285 L179.633,229.773 L171.793,236.303 L138.837,211.848 L131.793,186.303 L111.793,156.303 L81.793,166.303 L61.793,156.303 L61.793,136.303 z" fill-opacity="0" stroke="#0000FF" stroke-width="1" opacity="0"/>
  </g>
  <defs/>
</svg>
