<?xml version="1.0" encoding="UTF-8"?>
<!DOCTYPE svg PUBLIC "-//W3C//DTD SVG 1.1//EN" "http://www.w3.org/Graphics/SVG/1.1/DTD/svg11.dtd">
<svg version="1.1" xmlns="http://www.w3.org/2000/svg" xmlns:xlink="http://www.w3.org/1999/xlink" x="0px" y="0px" width="320" height="320" viewBox="0, 0, 320, 320">
  <g id="Layer 9">
    <path d="M61.793,139.444 L81.793,119.444 L101.793,109.444 L118.56,88.891 L144.521,79.001 L130.923,93.836 L110.404,107.437 L118.908,107.598 L140.962,96.765 L166.155,89.509 L157.502,103.107 L127.561,112.543 L141.793,139.444 L210.042,134.248 L252.98,132.503 L267.527,121.885 L279.271,123.74 L282.361,145.374 L273.09,154.537 L259.491,153.409 L242.361,176.139 L263.2,201.622 L227.967,245.509 L214.369,240.564 L232.003,202.556 L179.932,195.3 L158.617,184.701 L144.521,218.203 L135.868,249.109 L119.797,249.652 L128.873,218.398 L131.793,189.444 L111.793,159.444 L81.793,169.444 L61.793,159.444 L61.793,139.444 z" fill-opacity="0" stroke="#0000FF" stroke-width="1"/>
  </g>
  <g id="Layer 3" display="none">
    <path d="M68.493,93.218 L82.091,70.965 L94.454,58.603 L114.317,36.022 L143.987,26.751 L129.687,43.15 L112.379,60.457 L118.56,61.694 L142.049,45.623 L171.718,41.325 L152.557,56.131 L131.541,62.959 L158.738,72.82 L209.063,60.805 L270.319,49.957 L288.976,24.227 L310.134,28.871 L313.395,39.531 L291.681,61.85 L283.425,63.594 L277.331,106.828 L285.267,133.016 L320.5,175.666 L317.409,187.41 L258.07,141.67 L214.008,130.652 L152.557,145.758 L115.109,165.885 L86.234,181.229 L84.203,168.976 L109.289,150.084 L133.395,125.36 L124.742,108.671 L86.418,112.379 L72.202,104.344 L68.493,93.218 z" fill-opacity="0" stroke="#0000FF" stroke-width="1"/>
  </g>
  <g id="Layer 2" display="none">
    <path d="M61.793,103.499 L72.919,83.719 L85.362,68.449 L102.489,39.441 L130.923,27.079 L116.409,43.783 L97.643,61.467 L110.624,61.467 L128.771,51.314 L161.21,45.004 L144.521,55.626 L121.132,66.412 L159.243,87.423 L201.275,35.501 L249.488,44.155 L249.613,11.433 L266.352,20.772 L269.613,31.433 L270.85,56.048 L262.594,57.792 L256.5,101.026 L258.255,131.541 L282.361,192.116 L270.617,199.534 L233.53,137.104 L205.196,107.207 L170.581,141.822 L121.651,162.447 L112.379,190.88 L97.544,190.262 L106.198,156.884 L140.194,139.576 L117.423,109.062 L95.789,127.605 L76.009,126.987 L61.793,103.499 z" fill-opacity="0" stroke="#0000FF" stroke-width="1"/>
  </g>
  <g id="Layer 1" display="none">
    <path d="M62.114,136.24 L82.114,116.24 L102.114,106.24 L110.178,88.777 L128.103,63.434 L124.394,82.596 L110.725,104.233 L119.229,104.394 L134.781,79.457 L158.12,61.075 L151.321,85.8 L127.882,109.339 L142.114,136.24 L207.001,143.954 L257.179,140.313 L262.793,129.183 L279.532,138.522 L285.773,160.53 L273.411,168.565 L262.285,154.348 L247.179,190.313 L259.073,230.947 L196.025,239.6 L191.08,229.71 L236.821,216.73 L184.749,209.474 L158.938,181.497 L155.229,206.222 L179.954,229.71 L172.114,236.24 L139.158,211.785 L132.114,186.24 L112.114,156.24 L82.114,166.24 L62.114,156.24 L62.114,136.24 z" fill-opacity="0" stroke="#0000FF" stroke-width="1"/>
  </g>
  <defs/>
</svg>
