<?xml version="1.0" encoding="UTF-8"?>
<!DOCTYPE svg PUBLIC "-//W3C//DTD SVG 1.1//EN" "http://www.w3.org/Graphics/SVG/1.1/DTD/svg11.dtd">
<svg version="1.1" xmlns="http://www.w3.org/2000/svg" xmlns:xlink="http://www.w3.org/1999/xlink" x="0px" y="0px" width="300" height="230" viewBox="0, 0, 300, 230">
  <g id="Layer 3">
    <path d="M20.5,100.5 L40.5,80.5 L60.5,70.5 L41.914,49.949 L39.441,22.752 L56.131,43.768 L69.111,68.493 L79.001,70.347 L84.564,40.06 L100.5,20.5 L97.544,46.241 L86.418,79.619 L100.5,100.5 L160.5,70.5 L210.5,80.5 L220.5,50.5 L237.239,59.839 L240.5,70.5 L230.5,90.5 L220.5,90.5 L200.5,130.5 L217.459,195.207 L154.411,203.861 L149.466,193.971 L195.207,180.99 L140.5,140.5 L117.324,145.758 L113.615,170.482 L138.34,193.971 L130.5,200.5 L97.544,176.045 L90.5,150.5 L70.5,120.5 L40.5,130.5 L20.5,120.5 L20.5,100.5 z" fill-opacity="0" stroke="#0000FF" stroke-width="1"/>
  </g>
  <defs/>
</svg>
