<?xml version="1.0" encoding="UTF-8"?>
<!DOCTYPE svg PUBLIC "-//W3C//DTD SVG 1.1//EN" "http://www.w3.org/Graphics/SVG/1.1/DTD/svg11.dtd">
<svg version="1.1" xmlns="http://www.w3.org/2000/svg" xmlns:xlink="http://www.w3.org/1999/xlink" x="0px" y="0px" width="320" height="320" viewBox="0, 0, 320, 320">
  <g id="Layer 6">
    <path d="M55.008,151.129 L63.008,125.129 L85.29,110.102 L76.426,72.863 L90.203,42.395 L96.426,74.863 L95.585,109.28 L103.659,110.794 L107.426,74.863 L126.203,45.395 L127.426,82.863 L109.714,118.363 L136.55,144.955 L181.98,160.926 L217.98,186.926 L238.93,215.87 L253.624,207.706 L256.89,228.115 L251.064,241.177 L239.635,241.177 L224.124,256.688 L177.703,261.586 L109.945,261.586 L115.659,246.891 L160.672,247.684 L147.979,220.06 L105.751,186.481 L96.5,205.5 L91.5,227.5 L77.5,224.5 L82.5,192.5 L107.5,165.5 L94.746,159.697 L84.008,169.129 L63.008,168.129 L55.008,151.129 z" fill-opacity="0" stroke="#0000FF" stroke-width="1"/>
  </g>
  <g id="Layer 1">
    <path d="M54.5,130.5 L71.029,112.701 L91.029,102.701 L80.442,72.15 L81.97,40.953 L94.66,65.969 L99.64,100.693 L109.954,100.784 L113.903,66.189 L127.97,45.953 L130.443,72.532 L118.607,105.729 L142.5,130.5 L192.971,143.953 L241.738,167.7 L249.971,151.953 L268.97,160.953 L269.97,182.953 L254.971,188.953 L246.844,181.736 L222.07,203.555 L233.964,244.189 L170.915,252.843 L165.971,242.953 L211.712,229.973 L156.971,215.953 L130.971,186.953 L127.5,211.5 L138.5,236.5 L126.5,239.5 L111.5,211.5 L109.97,172.953 L101.029,152.701 L78.5,156.5 L58.5,151.5 L54.5,130.5 z" fill-opacity="0" stroke="#0000FF" stroke-width="1"/>
  </g>
  <g id="Layer 0">
    <path d="M59.5,142.5 L69.293,129.14 L89.293,119.14 L80.972,85.697 L82.5,57.5 L95.189,79.516 L97.904,117.132 L106.408,117.294 L111.433,77.736 L125.5,57.5 L127.972,84.079 L115.061,122.239 L134.5,143.5 L194.18,156.854 L243.268,151.584 L251.5,135.837 L270.5,144.837 L271.5,166.837 L256.5,172.837 L248.374,165.62 L234.358,203.212 L246.252,243.846 L183.204,252.5 L178.259,242.61 L224,229.63 L171.928,222.374 L143.5,195.5 L142.408,219.122 L137.5,251.5 L125.5,250.5 L126.337,224.685 L126.5,191.5 L99.293,169.14 L75.5,173.5 L58.5,162.5 L59.5,142.5 z" fill-opacity="0" stroke="#0000FF" stroke-width="1"/>
  </g>
  <defs/>
</svg>
