<?xml version="1.0" encoding="UTF-8"?>
<!DOCTYPE svg PUBLIC "-//W3C//DTD SVG 1.1//EN" "http://www.w3.org/Graphics/SVG/1.1/DTD/svg11.dtd">
<svg version="1.1" xmlns="http://www.w3.org/2000/svg" xmlns:xlink="http://www.w3.org/1999/xlink" x="0px" y="0px" width="320" height="320" viewBox="0, 0, 320, 320">
  <g id="Layer 9">
    <path d="M75.699,134 L86,118 L100.699,106 L127.699,71 L162.699,70 L138.699,89 L110.103,107.437 L118.607,107.598 L146.699,86 L182.699,92 L154.699,109 L127.26,112.543 L141.492,139.444 L210.699,126 L252.679,132.503 L267.226,121.885 L278.97,123.74 L282.06,145.374 L272.789,154.537 L259.19,153.409 L242.06,176.139 L262.899,201.622 L227.666,245.509 L214.068,240.564 L231.702,202.556 L179.631,195.3 L158.316,184.701 L144.22,218.203 L135.567,249.109 L122.699,250 L128.572,218.398 L131.492,189.444 L111.492,159.444 L92.699,163 L75.699,155 L75.699,134 z" fill-opacity="0" stroke="#0000FF" stroke-width="1"/>
  </g>
  <g id="Layer 3">
    <path d="M74,85 L84,71 L104,54 L119,26 L170,11 L139,37 L112.379,60.457 L118.56,61.694 L147,40 L193,31 L164,56 L131.541,62.959 L158.738,72.82 L212,57 L270.319,49.957 L287,35 L302,31 L308,40 L298,54 L283.425,63.594 L277.331,106.828 L285.267,133.016 L320.5,175.666 L317.409,187.41 L258.07,141.67 L214.008,130.652 L152.557,145.758 L115.109,165.885 L89,177 L84.203,168.976 L109.289,150.084 L133.395,125.36 L124.742,108.671 L95,110 L78,100 L74,85 z" fill-opacity="0" stroke="#0000FF" stroke-width="1"/>
  </g>
  <g id="Layer 2">
    <path d="M71,102 L78,76 L86,60 L98,35 L145,19 L124,43 L97.643,61.467 L110.624,61.467 L131,44 L168,32 L149,58 L121.132,66.412 L159.243,87.423 L201.275,35.501 L249.488,44.155 L252,21 L266.352,20.772 L269.613,31.433 L269,47 L262.594,57.792 L256.5,101.026 L258.255,131.541 L282.361,192.116 L270.617,199.534 L233.53,137.104 L205.196,107.207 L170.581,141.822 L121.651,162.447 L112.379,190.88 L101,187 L106.198,156.884 L140.194,139.576 L117.423,109.062 L102,118 L84,118 L71,102 z" fill-opacity="0" stroke="#0000FF" stroke-width="1"/>
  </g>
  <g id="Layer 1">
    <path d="M70,136 L84,116 L100.323,109.342 L103,72 L135.387,47.879 L122.603,85.698 L108.934,107.335 L117.438,107.496 L132.99,82.559 L162,60 L154,92 L126.091,112.441 L140.323,139.342 L206.388,145.833 L256.566,142.192 L262.18,131.062 L278.919,140.401 L284,158 L276,162 L261.672,156.227 L246.566,192.192 L258.46,232.826 L195.412,241.479 L190.467,231.589 L236.208,218.609 L184.136,211.353 L157.147,184.599 L154.616,208.101 L179.341,231.589 L171.501,238.119 L138.545,213.664 L131.501,188.119 L110.323,159.342 L89,165 L73,156 L70,136 z" fill-opacity="0" stroke="#0000FF" stroke-width="1"/>
  </g>
  <defs/>
</svg>
