<?xml version="1.0" encoding="UTF-8"?>
<!DOCTYPE svg PUBLIC "-//W3C//DTD SVG 1.1//EN" "http://www.w3.org/Graphics/SVG/1.1/DTD/svg11.dtd">
<svg version="1.1" xmlns="http://www.w3.org/2000/svg" xmlns:xlink="http://www.w3.org/1999/xlink" x="0px" y="0px" width="640" height="320" viewBox="0, 0, 640, 320">
  <g id="Layer 1">
    <path d="M640.5,120.077 L647.5,94.077 L655.5,78.077 L667.5,53.077 L714.5,37.077 L693.5,61.077 L667.143,79.544 L680.124,79.544 L700.5,62.077 L737.5,50.077 L718.5,76.077 L690.632,84.489 L728.743,105.5 L770.775,53.578 L818.988,62.232 L821.5,39.077 L835.852,38.849 L839.113,49.51 L838.5,65.077 L832.094,75.869 L826,119.103 L827.755,149.618 L851.861,210.193 L840.117,217.611 L803.03,155.181 L774.696,125.284 L740.081,159.899 L691.151,180.524 L681.879,208.957 L670.5,205.077 L675.698,174.961 L709.694,157.653 L686.923,127.139 L671.5,136.077 L653.5,136.077 L640.5,120.077 z" fill-opacity="0" stroke="#0000FF" stroke-width="1"/>
  </g>
  <g id="Layer 2">
    <path d="M517.07,139.879 L527.07,125.879 L547.07,108.879 L562.07,80.879 L613.07,65.879 L582.07,91.879 L555.449,115.336 L561.63,116.573 L590.07,94.879 L636.07,85.879 L607.07,110.879 L574.611,117.838 L601.808,127.699 L655.07,111.879 L713.389,104.836 L730.07,89.879 L745.07,85.879 L751.07,94.879 L741.07,108.879 L726.495,118.473 L720.401,161.707 L728.337,187.895 L763.57,230.545 L760.479,242.289 L701.14,196.549 L657.078,185.531 L595.627,200.637 L558.179,220.764 L532.07,231.879 L527.273,223.855 L552.359,204.963 L576.465,180.239 L567.812,163.55 L538.07,164.879 L521.07,154.879 L517.07,139.879 z" fill-opacity="0" stroke="#0000FF" stroke-width="1"/>
  </g>
  <g id="Layer 3">
    <path d="M429.034,150.947 L439.335,134.947 L454.034,122.947 L481.034,87.947 L516.034,86.947 L492.034,105.947 L463.438,124.384 L471.941,124.545 L500.034,102.947 L536.034,108.947 L508.034,125.947 L480.595,129.49 L494.827,156.391 L564.034,142.947 L606.013,149.45 L620.56,138.832 L632.305,140.687 L635.395,162.321 L626.124,171.484 L612.525,170.356 L595.395,193.086 L616.234,218.569 L581,262.456 L567.403,257.511 L585.036,219.503 L532.966,212.247 L511.651,201.648 L497.555,235.15 L488.902,266.056 L476.034,266.947 L481.906,235.345 L484.827,206.391 L464.827,176.391 L446.034,179.947 L429.034,171.947 L429.034,150.947 z" fill-opacity="0" stroke="#0000FF" stroke-width="1"/>
  </g>
  <g id="Layer 5">
    <path d="M400.799,153.261 L412.799,139.261 L433.592,126.705 L424.799,99.261 L428.799,65.261 L442.799,98.261 L442.203,124.698 L450.707,124.859 L464.799,100.261 L498.799,81.261 L483.12,113.695 L459.36,129.804 L473.592,156.705 L538.799,142.261 L584.779,149.764 L599.326,139.146 L611.07,141.001 L614.16,162.635 L604.889,171.798 L591.29,170.67 L574.16,193.4 L588.799,215.261 L559.799,265.261 L546.799,262.261 L563.802,219.817 L511.731,212.561 L490.416,201.962 L476.32,235.464 L467.667,266.37 L451.596,266.913 L460.672,235.659 L463.592,206.705 L443.592,176.705 L416.799,181.261 L401.799,171.261 L400.799,153.261 z" fill-opacity="0" stroke="#0000FF" stroke-width="1"/>
  </g>
  <g id="Layer 6">
    <path d="M333.688,159.654 L345.314,130.242 L357.979,121.535 L362.316,102.543 L385.934,65.453 L387.103,101.502 L367.962,120.738 L375.791,122.206 L404.518,99.918 L433.431,91.576 L411.068,119.603 L381.663,129.545 L407.685,155.331 L454.389,156.123 L480.837,178.182 L506.96,224.095 L521.209,216.179 L524.375,235.97 L518.726,248.635 L507.644,248.635 L484.25,264.45 L446.913,265.522 L387.103,266.913 L386.75,257.606 L425.74,255.449 L427.99,217.942 L386.734,194.689 L359.396,206.751 L354.295,219.609 L342.773,214.667 L351.48,192.502 L381.976,172.32 L367.149,169.626 L352.108,177.542 L340.021,170.736 L333.688,159.654 z" fill-opacity="0" stroke="#0000FF" stroke-width="1"/>
  </g>
  <g id="Layer 7">
    <path d="M279.48,127.16 L298.218,109.203 L312.272,96.711 L302.903,77.973 L295.876,42.839 L320.86,76.411 L321.873,98.147 L329.594,99.595 L330.229,73.288 L333.352,42.839 L350.528,75.631 L336.166,106.052 L355.994,134.187 L377.855,156.828 L399.715,179.4 L425.48,218.507 L442.656,211.48 L445.779,230.999 L440.208,243.491 L426.155,242.71 L403.081,264.484 L366.257,265.541 L307.267,266.913 L306.92,257.733 L345.375,255.606 L347.594,218.614 L324.764,187.277 L307.587,187.277 L305.245,202.892 L291.192,199.769 L295.095,180.251 L331.79,156.047 L316.956,141.994 L295.876,146.679 L284.946,137.31 L279.48,127.16 z" fill-opacity="0" stroke="#0000FF" stroke-width="1"/>
  </g>
  <defs/>
</svg>
