<?xml version="1.0" encoding="UTF-8"?>
<!DOCTYPE svg PUBLIC "-//W3C//DTD SVG 1.1//EN" "http://www.w3.org/Graphics/SVG/1.1/DTD/svg11.dtd">
<svg version="1.1" xmlns="http://www.w3.org/2000/svg" xmlns:xlink="http://www.w3.org/1999/xlink" x="0px" y="0px" width="320" height="320" viewBox="0, 0, 320, 320">
  <g id="Layer 4">
    <path d="M67,138 L81.793,116.303 L101.793,106.303 L81,85 L77,50 L102,71 L110.404,104.295 L118.908,104.457 L122,72 L141,42 L142.396,82.205 L127.561,109.402 L141.793,136.303 L203,129 L256.858,140.375 L262.472,129.246 L279.21,138.585 L282,158 L272,166 L261.964,154.411 L246.858,190.375 L258.752,231.009 L195.704,239.663 L190.759,229.773 L236.5,216.793 L184.428,209.537 L158.617,181.56 L154.908,206.285 L179.633,229.773 L171.793,236.303 L138.837,211.848 L131.793,186.303 L111.793,156.303 L89,162 L70,154 L67,138 z" fill-opacity="0" stroke="#0000FF" stroke-width="1"/>
  </g>
  <g id="Layer 3">
    <path d="M69,136 L81,122 L101.793,109.444 L93,82 L97,48 L111,81 L110.404,107.437 L118.908,107.598 L133,83 L167,64 L151.321,96.434 L127.561,112.543 L141.793,139.444 L207,125 L252.98,132.503 L267.527,121.885 L279.271,123.74 L282.361,145.374 L273.09,154.537 L259.491,153.409 L242.361,176.139 L257,198 L228,248 L215,245 L232.003,202.556 L179.932,195.3 L158.617,184.701 L144.521,218.203 L135.868,249.109 L119.797,249.652 L128.873,218.398 L131.793,189.444 L111.793,159.444 L85,164 L70,154 L69,136 z" fill-opacity="0" stroke="#0000FF" stroke-width="1"/>
  </g>
  <g id="Layer 2">
    <path d="M67,104 L72.919,83.719 L85.362,68.449 L105,30 L139,19 L122,45 L99.234,61.684 L112.215,61.684 L131,43 L163,30 L148,58 L122.723,66.629 L159.243,87.423 L201.275,35.501 L249.488,44.155 L249,16 L266.352,20.772 L269.613,31.433 L269,49 L262.594,57.792 L256.5,101.026 L258.255,131.541 L282.361,192.116 L272,199 L233.53,137.104 L205.196,107.207 L170.581,141.822 L121.651,162.447 L112.379,190.88 L100,191 L106.198,156.884 L140.194,139.576 L117.423,109.062 L99,123 L77,121 L67,104 z" fill-opacity="0" stroke="#0000FF" stroke-width="1"/>
  </g>
  <g id="Layer 1">
    <path d="M65,137 L81.793,116.303 L101.793,106.303 L81,90 L76,46 L101,74 L110.404,104.295 L118.908,104.457 L118,70 L139,43 L142.396,82.205 L127.561,109.402 L141.793,136.303 L211,129 L256.858,140.375 L262.472,129.246 L279.21,138.585 L285.452,160.592 L273,165 L261.964,154.411 L246.858,190.375 L258.752,231.009 L195.704,239.663 L190.759,229.773 L236.5,216.793 L184.428,209.537 L158.617,181.56 L154.908,206.285 L179.633,229.773 L171.793,236.303 L138.837,211.848 L131.793,186.303 L111.793,156.303 L90,163 L69,154 L65,137 z" fill-opacity="0" stroke="#0000FF" stroke-width="1"/>
  </g>
  <defs/>
</svg>
