<?xml version="1.0" encoding="UTF-8"?>
<!DOCTYPE svg PUBLIC "-//W3C//DTD SVG 1.1//EN" "http://www.w3.org/Graphics/SVG/1.1/DTD/svg11.dtd">
<svg version="1.1" xmlns="http://www.w3.org/2000/svg" xmlns:xlink="http://www.w3.org/1999/xlink" x="0px" y="0px" width="320" height="320" viewBox="0, 0, 320, 320">
  <g id="Layer 6 - loop">
    <path d="M52.148,214.186 L48.798,171.451 L63.959,150.604 L70.152,117.531 L95.993,76.46 L90.051,122.269 L74.848,154.097 L85.993,153.46 L109.003,117.531 L135.993,85.46 L127.955,128.902 L99.527,155.435 L129.624,159.232 L174.387,132.693 L217.228,118.019 L275.779,144.064 L285.255,128.902 L301.364,132.693 L307.997,151.645 L287.15,159.225 L292.836,184.81 L263.46,255.88 L169.993,263.46 L174.387,251.142 L218.923,239.77 L190.496,210.395 L136.221,222.218 L128.601,248.335 L132.693,266.303 L119.89,269.902 L114.689,241.666 L116.584,202.814 L98.072,192.298 L75.837,221.766 L62.571,219.871 L52.148,214.186 z" fill-opacity="0" stroke="#0000FF" stroke-width="1"/>
  </g>
  <g id="Layer 5 - loop">
    <path d="M52.148,214.186 L48.798,171.451 L63.959,150.604 L70.152,117.531 L95.993,76.46 L90.051,122.269 L74.848,154.097 L85.993,153.46 L109.003,117.531 L135.993,85.46 L127.955,128.902 L99.527,155.435 L129.624,159.232 L174.387,132.693 L217.228,118.019 L275.779,144.064 L285.255,128.902 L301.364,132.693 L307.997,151.645 L287.15,159.225 L292.836,184.81 L263.46,255.88 L169.993,263.46 L174.387,251.142 L218.923,239.77 L190.496,210.395 L136.221,222.218 L128.601,248.335 L132.693,266.303 L119.89,269.902 L114.689,241.666 L116.584,202.814 L98.072,192.298 L79.628,228.399 L65.993,216.46 L52.148,214.186 z" fill-opacity="0" stroke="#0000FF" stroke-width="1"/>
  </g>
  <g id="Layer 4">
    <path d="M53.5,209.5 L55.5,183.5 L62.5,161.5 L76.5,115.5 L111.355,90.137 L101.355,123.137 L77.733,150.697 L86.355,153.137 L111.728,130.151 L150.582,101.121 L129.5,142.5 L98.355,157.137 L130.132,160.272 L177.5,134.5 L217.735,119.059 L281.265,139.48 L296.5,114.5 L311.5,129.5 L309.5,157.5 L296.5,161.5 L301.709,188.581 L264.408,257.775 L169.649,260.617 L169.5,246.5 L225.5,242.5 L197.5,217.5 L136.729,223.258 L129.85,245.456 L135.536,270.093 L120.397,270.942 L109.57,242.874 L120.714,198.042 L104.5,203.5 L83.5,225.5 L65.5,223.5 L53.5,209.5 z" fill-opacity="0" stroke="#0000FF" stroke-width="1"/>
  </g>
  <g id="Layer 3">
    <path d="M59.137,193.723 L62.137,153.723 L79.137,136.723 L84.604,112.159 L110.137,57.723 L111.397,95.901 L91.1,136.293 L104.137,134.723 L130.227,97.573 L157.137,70.723 L149.47,115.364 L112.137,138.723 L135.716,153.268 L184.5,136.5 L230.589,133.977 L287.474,168.864 L298.417,151.422 L313.981,171.391 L315.447,188.849 L303.184,195.603 L275.5,250.5 L236.5,263.5 L168.5,265.5 L165.5,251.5 L224.609,246.404 L198.077,221.766 L137.5,215.5 L127.773,241.129 L123.773,267.129 L111.5,263.5 L112.773,231.129 L117.62,187.733 L103.137,192.723 L93.5,205.5 L72.5,208.5 L59.137,193.723 z" fill-opacity="0" stroke="#0000FF" stroke-width="1"/>
  </g>
  <g id="Layer 2">
    <path d="M50.945,163.698 L57.107,124.226 L70.299,109.979 L73.5,75.5 L88.052,32.399 L94.5,76.5 L82.38,106.225 L92.436,105.86 L118.5,74.5 L154.965,52.11 L134.5,90.5 L101.709,113.275 L140.937,137.828 L198.714,125.837 L237.432,145.681 L282.371,195.01 L297.734,181.299 L307.13,204.809 L303.684,221.986 L290.026,225.063 L275.666,247.774 L221.512,266.124 L145.5,264.5 L143.5,250.5 L213.238,247.351 L175.334,212.29 L122.269,197.129 L104.5,219.5 L98.5,232.5 L85.5,227.5 L89.5,206.5 L111.5,170.5 L94.95,166.699 L78.612,180.63 L61.827,175.598 L50.945,163.698 z" fill-opacity="0" stroke="#0000FF" stroke-width="1"/>
  </g>
  <g id="Layer 1">
    <path d="M51.469,136.762 L66.155,99.608 L82.155,88.608 L87.633,64.617 L117.469,17.762 L118.945,63.301 L94.766,87.601 L104.656,89.456 L140.945,61.301 L177.469,50.762 L149.219,86.168 L112.073,98.727 L144.945,131.301 L203.945,132.301 L237.355,160.168 L270.355,218.168 L288.355,208.168 L292.355,233.168 L285.219,249.168 L271.219,249.168 L241.666,269.146 L194.5,270.5 L118.945,272.258 L118.5,260.5 L167.754,257.775 L170.596,210.395 L118.479,181.02 L83.945,196.258 L77.5,212.5 L62.945,206.258 L73.945,178.258 L112.469,152.762 L93.738,149.359 L74.738,159.359 L59.469,150.762 L51.469,136.762 z" fill-opacity="0" stroke="#0000FF" stroke-width="1"/>
  </g>
  <defs/>
</svg>
