<?xml version="1.0" encoding="UTF-8"?>
<!DOCTYPE svg PUBLIC "-//W3C//DTD SVG 1.1//EN" "http://www.w3.org/Graphics/SVG/1.1/DTD/svg11.dtd">
<svg version="1.1" xmlns="http://www.w3.org/2000/svg" xmlns:xlink="http://www.w3.org/1999/xlink" x="0px" y="0px" width="320" height="320" viewBox="0, 0, 320, 320">
  <g id="Layer 1">
    <path d="M130.438,97.473 L89.977,82.555 L152.707,79.199 L208.172,122.137 L209.172,134.492 L218.18,139.629 L210.219,145.152 L209,162 L57.172,157.551 L62.305,140.672 L75.484,140.672 L84.926,144.715 L114.418,144.02 L130.648,138.059 L152.656,116.703 L130.438,97.473 z" fill-opacity="0" stroke="#0000FF" stroke-width="1"/>
    <path d="M127.589,221.633 L150.849,203.676 L130.07,181.123 L114.199,174.263 L84.792,171.919 L75.139,175.428 L61.98,174.69 L57.799,157.551 L209,162 L209.913,178.492 L217.552,184.452 L208.271,189.076 L206.582,201.357 L148.802,241.124 L86.357,234.265 L127.589,221.633 z" fill-opacity="0" stroke="#0000FF" stroke-width="1"/>
  </g>
  <defs/>
</svg>
