<?xml version="1.0" encoding="UTF-8"?>
<!DOCTYPE svg PUBLIC "-//W3C//DTD SVG 1.1//EN" "http://www.w3.org/Graphics/SVG/1.1/DTD/svg11.dtd">
<svg version="1.1" xmlns="http://www.w3.org/2000/svg" xmlns:xlink="http://www.w3.org/1999/xlink" x="0px" y="0px" width="320" height="320" viewBox="0, 0, 320, 320">
  <g id="Layer 2">
    <path d="M249.355,120.152 L267,101 L291,101 L304.344,117.059 L292,139 L269,137 L251,134 L190.195,134.98 L187.145,145.727 L165,147 L144,144 L115.973,145.727 L91.918,174.527 L159.047,173.66 L152.477,200.543 C152.477,200.543 44.344,205.828 43.672,204.414 C43,203 37.496,193.105 37.496,193.105 L35.453,176.621 L70,175 L68.992,126.152 L108,125 L108.625,108.145 L95.27,82.742 L134.422,83.438 L162.133,92.789 L186.105,92.789 L197.414,111.059 L249.355,120.152 z" fill-opacity="0" stroke="#0000FF" stroke-width="1"/>
  </g>
  <defs/>
</svg>
