<?xml version="1.0" encoding="UTF-8"?>
<!DOCTYPE svg PUBLIC "-//W3C//DTD SVG 1.1//EN" "http://www.w3.org/Graphics/SVG/1.1/DTD/svg11.dtd">
<svg version="1.1" xmlns="http://www.w3.org/2000/svg" xmlns:xlink="http://www.w3.org/1999/xlink" x="0px" y="0px" width="320" height="320" viewBox="0, 0, 320, 320">
  <g id="Layer 1">
    <path d="M143.73,94.306 L106.635,72.731 L93.817,97.094 L130.421,118.912 L143.73,94.306 z" fill-opacity="0" stroke="#00FF00" stroke-width="1"/>
    <path d="M158.563,118.912 L143.73,94.306 L179.2,72.731 L191.926,95.668 L158.563,118.912 z" fill-opacity="0" stroke="#00FF00" stroke-width="1"/>
    <path d="M143.73,94.306 L143.73,236.327" fill-opacity="0" stroke="#00FF00" stroke-width="1"/>
    <path d="M149.462,134.32 C148.062,134.32 146.927,133.09 146.927,131.572 C146.927,130.054 148.062,128.824 149.462,128.824 C150.862,128.824 151.997,130.054 151.997,131.572 C151.997,133.09 150.862,134.32 149.462,134.32 z" fill-opacity="0" stroke="#00FF00" stroke-width="1"/>
    <path d="M149.462,167.054 C148.062,167.054 146.927,165.9 146.927,164.477 C146.927,163.054 148.062,161.9 149.462,161.9 C150.862,161.9 151.997,163.054 151.997,164.477 C151.997,165.9 150.862,167.054 149.462,167.054 z" fill-opacity="0" stroke="#00FF00" stroke-width="1"/>
    <path d="M149.462,199.788 C148.062,199.788 146.927,198.634 146.927,197.211 C146.927,195.788 148.062,194.634 149.462,194.634 C150.862,194.634 151.997,195.788 151.997,197.211 C151.997,198.634 150.862,199.788 149.462,199.788 z" fill-opacity="0" stroke="#00FF00" stroke-width="1"/>
    <path d="M30.216,118.912 L93.817,97.094 L30.216,118.912 z" fill-opacity="0" stroke="#00FF00" stroke-width="1"/>
    <path d="M30.216,118.912 L21.147,260.102" fill-opacity="0" stroke="#00FF00" stroke-width="1"/>
    <path d="M191.926,97.094 L258.495,118.912 L266.62,268.098" fill-opacity="0" stroke="#00FF00" stroke-width="1"/>
    <path d="M30.216,118.912 L56.145,148.217 L66.88,262.427" fill-opacity="0" stroke="#00FF00" stroke-width="1"/>
    <path d="M258.495,118.912 L230.815,154.694 L220.731,262.427" fill-opacity="0" stroke="#00FF00" stroke-width="1"/>
    <path d="M93.817,97.094 L73.356,110.243 L81.873,114.901 L70.465,127.46 L143.73,240.096 L93.817,97.094 z" fill-opacity="0" stroke="#00FF00" stroke-width="1"/>
    <path d="M191.926,97.094 L207.762,111.605 L199.75,115.085 L212.168,125.581 L138.567,256.296 L191.926,97.094 z" fill-opacity="0" stroke="#00FF00" stroke-width="1"/>
    <path d="M138.567,256.296 L138.567,268.098" fill-opacity="0" stroke="#00FF00" stroke-width="1"/>
    <path d="M148.204,266.295 C146.494,266.295 145.107,264.909 145.107,263.199 C145.107,261.489 146.494,260.102 148.204,260.102 C149.914,260.102 151.3,261.489 151.3,263.199 C151.3,264.909 149.914,266.295 148.204,266.295 z" fill-opacity="0" stroke="#00FF00" stroke-width="1"/>
  </g>
  <defs/>
</svg>
