<?xml version="1.0" encoding="UTF-8"?>
<!DOCTYPE svg PUBLIC "-//W3C//DTD SVG 1.1//EN" "http://www.w3.org/Graphics/SVG/1.1/DTD/svg11.dtd">
<svg version="1.1" xmlns="http://www.w3.org/2000/svg" xmlns:xlink="http://www.w3.org/1999/xlink" x="0px" y="0px" width="300" height="230" viewBox="0, 0, 300, 230">
  <g id="Layer 1">
    <path d="M70.5,90.5 C70.5,90.5 80.5,70.5 80.5,70.5 C80.5,70.5 110.5,60.5 110.5,60.5 L100.5,30.5 L110.5,10.5 L120.5,60.5 L140.5,20.5 L160.5,10.5 L150.5,40.5 L130.5,70.5 C130.5,70.5 150.5,90.5 150.5,90.5 C150.5,90.5 190.5,110.5 190.5,110.5 C190.5,110.5 210.5,130.5 210.5,130.5 L220.5,120.5 L240.5,120.5 L240.5,130.5 L230.5,140.5 L220.5,140.5 L200.5,160.5 L230.5,170.5 L200.5,210.5 L190.5,210.5 L210.5,180.5 L170.5,160.5 L150.5,160.5 L140.5,170.5 L120.5,210.5 L110.5,210.5 L130.5,170.5 L110.5,140.5 L110.5,110.5 L90.5,110.5 L80.5,100.5 L70.5,90.5 z" fill-opacity="0" stroke="#00FF00" stroke-width="1"/>
  </g>
  <g id="Layer 2">
    <path d="M60.5,80.5 C60.5,80.5 70.5,60.5 70.5,60.5 C70.5,60.5 110.5,60.5 110.5,60.5 L100.5,20.5 L110.5,0.5 L120.5,60.5 L150.5,10.5 L170.5,0.5 L170.5,30.5 L130.5,70.5 C130.5,70.5 140.5,100.5 140.5,100.5 C140.5,100.5 190.5,110.5 190.5,110.5 C190.5,110.5 210.5,120.5 210.5,120.5 L220.5,110.5 L240.5,110.5 L240.5,120.5 L230.5,140.5 L220.5,130.5 L210.5,150.5 L240.5,160.5 L210.5,210.5 L200.5,210.5 L210.5,180.5 L170.5,160.5 L160.5,160.5 L150.5,170.5 L130.5,210.5 L120.5,210.5 L130.5,170.5 L120.5,140.5 L100.5,110.5 L90.5,110.5 L70.5,90.5 L60.5,80.5 z" fill-opacity="0" stroke="#00FF00" stroke-width="1"/>
  </g>
  <g id="Layer 3">
    <path d="M70.5,80.5 C70.5,80.5 80.5,60.5 80.5,60.5 C80.5,60.5 110.5,60.5 110.5,60.5 L110.5,20.5 L120.5,0.5 L120.5,60.5 L150.5,30.5 L170.5,20.5 L170.5,50.5 L130.5,70.5 C130.5,70.5 150.5,100.5 150.5,100.5 C150.5,100.5 190.5,100.5 190.5,100.5 C190.5,100.5 210.5,110.5 210.5,110.5 L220.5,100.5 L240.5,100.5 L240.5,110.5 L230.5,130.5 L220.5,120.5 L210.5,150.5 L230.5,160.5 L200.5,210.5 L190.5,210.5 L200.5,180.5 L160.5,160.5 L150.5,160.5 L140.5,170.5 L130.5,210.5 L120.5,210.5 L130.5,170.5 L130.5,150.5 L100.5,110.5 L90.5,110.5 L80.5,100.5 L70.5,80.5 z" fill-opacity="0" stroke="#00FF00" stroke-width="1"/>
  </g>
  <defs/>
</svg>
