<?xml version="1.0" encoding="UTF-8"?>
<!DOCTYPE svg PUBLIC "-//W3C//DTD SVG 1.1//EN" "http://www.w3.org/Graphics/SVG/1.1/DTD/svg11.dtd">
<svg version="1.1" xmlns="http://www.w3.org/2000/svg" xmlns:xlink="http://www.w3.org/1999/xlink" x="0px" y="0px" width="300" height="230" viewBox="0, 0, 300, 230">
  <g id="Layer 1">
    <path d="M60.5,110.5 L120.5,80.5 L120.5,40.5 L120.5,80.5 L160.5,80.5 L160.5,40.5 L160.5,40.5 L160.5,80.5 L220.5,110.5 L220.5,10.5 L160.5,40.5 L120.5,40.5 L60.5,10.5 L60.5,110.5 z" fill-opacity="0" stroke="#00FF00" stroke-width="1"/>
  </g>
  <g id="Layer 2">
    <path d="M60.5,82 L125.5,135 L126,110.5 L125.5,135 L149.5,135 L150,110.5 L150,110.5 L149.5,135 L220.5,82 L183,10.5 L150,110.5 L126,110.5 L105,10.5 L60.5,82 z" fill-opacity="0" stroke="#00FF00" stroke-width="1"/>
  </g>
  <g id="Layer 3">
    <path d="M91.5,111.656 L130.5,214.906 L126,190.406 L130.5,214.906 L143.5,214.906 L150,190.406 L150,190.406 L143.5,214.906 L184.5,111.656 L165,90.406 L150,190.406 L126,190.406 L110,90.406 L91.5,111.656 z" fill-opacity="0" stroke="#00FF00" stroke-width="1"/>
  </g>
  <g id="Layer 4">
    <path d="M125,204.75 L131,228 L126.5,203.5 L131,228 L144,228 L150.5,203.5 L150.5,203.5 L144,228 L153,204.75 L152.5,202.5 L150.5,203.5 L125.5,203.5 L125.5,202.5 L125,204.75 z" fill-opacity="0" stroke="#00FF00" stroke-width="1"/>
  </g>
  <defs/>
</svg>
