<?xml version="1.0" encoding="UTF-8"?>
<!DOCTYPE svg PUBLIC "-//W3C//DTD SVG 1.1//EN" "http://www.w3.org/Graphics/SVG/1.1/DTD/svg11.dtd">
<svg version="1.1" xmlns="http://www.w3.org/2000/svg" xmlns:xlink="http://www.w3.org/1999/xlink" x="0px" y="0px" width="300" height="230" viewBox="0, 0, 300, 230">
  <g id="Layer 1">
    <path d="M60.5,110.5 L120.5,80.5 L120.5,40.5 L120.5,80.5 L160.5,80.5 L160.5,40.5 L160.5,40.5 L160.5,80.5 L220.5,110.5 L220.5,10.5 L160.5,40.5 L120.5,40.5 L60.5,10.5 L60.5,110.5 z" fill-opacity="0" stroke="#00FF00" stroke-width="1"/>
  </g>
  <g id="Layer 2">
    <path d="M60.5,50.5 L141,150 L141,150 L140.5,230.5 L140.5,230.5 L141,149 L142,151 L141,150 L220.5,50.5 L160.5,90.5 L141,150 L141,150 L120.5,90.5 L60.5,50.5 z" fill-opacity="0" stroke="#00FF00" stroke-width="1"/>
  </g>
  <g id="Layer 3">
    <path d="M131.926,217.211 L140.5,217.211 L140.5,217.211 L140.5,230.5 L140.5,230.5 L140.5,217.211 L140.5,217.211 L140.5,217.211 L149.074,217.211 L146.931,210.566 L140.5,217.211 L140.5,217.211 L134.069,210.566 L131.926,217.211 z" fill-opacity="0" stroke="#00FF00" stroke-width="1"/>
  </g>
  <defs/>
</svg>
