<?xml version="1.0" encoding="UTF-8"?>
<!DOCTYPE svg PUBLIC "-//W3C//DTD SVG 1.1//EN" "http://www.w3.org/Graphics/SVG/1.1/DTD/svg11.dtd">
<svg version="1.1" xmlns="http://www.w3.org/2000/svg" xmlns:xlink="http://www.w3.org/1999/xlink" x="0px" y="0px" width="320" height="320" viewBox="0, 0, 320, 320">
  <g id="Layer 1">
    <path d="M143.855,239.507 L144.905,156.744 L108.141,157.432 L74.795,121.705 L113.926,119.663 L144.889,153.349 L169.022,120.433 L216.095,119.707 L182.951,156.714 L145.44,156.345" fill-opacity="0" stroke="#0000FF" stroke-width="1"/>
  </g>
  <g id="Layer 2">
    <path d="M143.855,239.507 L144.905,156.744 L122,181 L82,183 L110,149 L144.889,153.349 L164,119.663 L170,130 L177,137 L145.44,156.345" fill-opacity="0" stroke="#0000FF" stroke-width="1"/>
  </g>
  <g id="Layer 3">
    <path d="M150,210 L166,139 L128.095,144.256 L109,149 L130,124 L165.984,135.605 L163.095,135.256 L166.095,134.256 L165.095,136.256 L166.535,138.601" fill-opacity="0" stroke="#0000FF" stroke-width="1"/>
  </g>
  <g id="Layer 4">
    <path d="M150,171 L166,139 L136,143 L120,148 L133,140 L165.984,135.605 L163.095,135.256 L166.095,134.256 L165.095,136.256 L166.535,138.601" fill-opacity="0" stroke="#0000FF" stroke-width="1"/>
  </g>
  <g id="Layer 5">
    <path d="M151,150 L166,139 L146,152 L151,152 L149,150 L165.984,135.605 L163.095,135.256 L166.095,134.256 L165.095,136.256 L166.535,138.601" fill-opacity="0" stroke="#0000FF" stroke-width="1"/>
  </g>
  <defs/>
</svg>
